<svg width="2047" height="694" xmlns="http://www.w3.org/2000/svg" xmlns:xlink="http://www.w3.org/1999/xlink" xml:space="preserve" overflow="hidden"><g transform="translate(-435 -838)"><text font-family="Cal Sans,Cal Sans_MSFontService,sans-serif" font-weight="400" font-size="330" transform="matrix(1 0 0 1 633.6 1242)">Resonanex</text><path d="M2150 970.5C2150 943.162 2172.39 921 2200 921 2227.61 921 2250 943.162 2250 970.5 2250 997.838 2227.61 1020 2200 1020 2172.39 1020 2150 997.838 2150 970.5Z" fill="#1F75FE" fill-rule="evenodd"/><path d="M1968 970.5C1968 943.162 1990.16 921 2017.5 921 2044.84 921 2067 943.162 2067 970.5 2067 997.838 2044.84 1020 2017.5 1020 1990.16 1020 1968 997.838 1968 970.5Z" fill="#1F75FE" fill-rule="evenodd"/><path d="M1785 970.5C1785 943.162 1807.16 921 1834.5 921 1861.84 921 1884 943.162 1884 970.5 1884 997.838 1861.84 1020 1834.5 1020 1807.16 1020 1785 997.838 1785 970.5Z" fill="#1F75FE" fill-rule="evenodd"/><text font-family="Calibri,Calibri_MSFontService,sans-serif" font-weight="400" font-size="64" transform="matrix(1 0 0 1 2293.63 1103)">TM</text></g></svg>